<?xml version="1.0" encoding="UTF-8"?>
<svg id="Camada_2" xmlns="http://www.w3.org/2000/svg" viewBox="0 0 511.8 511.81">
  <defs>
    <style>
      .cls-1 {
        fill: #32b97c;
      }

      .cls-2 {
        fill: #fdfefe;
      }
    </style>
  </defs>
  <g id="Camada_1-2" data-name="Camada_1">
    <g id="K7pVsK.tif">
      <g>
        <path class="cls-1" d="M234.91,0h40.98c.47,1.26,1.6.92,2.53,1.01,10.78.99,21.47,2.53,32.03,4.91,105.24,23.67,182.64,106.88,198.72,213.53.88,5.82.7,11.8,2.62,17.46v39.98c-1.15.57-.84,1.67-.93,2.62-1.38,14.91-4.04,29.57-7.97,44.02-26.58,97.68-110.04,171.9-211.08,185.75-5.32.73-10.82.4-15.92,2.52h-40.98c-.46-1.25-1.59-.96-2.52-1.05-34.02-3.29-66.44-12.31-96.36-28.89C61.36,440.5,16.83,377.62,2.76,293.29c-.91-5.47-.53-11.16-2.76-16.4v-41.98c1.25-.46.96-1.59,1.05-2.52,3.29-34.02,12.31-66.44,28.89-96.36C71.3,61.36,134.18,16.83,218.51,2.76c5.47-.91,11.16-.53,16.4-2.76ZM138.62,201.61c-8.63-.14-15.92,3.39-22.07,9.56-6.71,6.72-13.45,13.4-20.14,20.15-13.98,14.12-13.99,31.76.05,45.94,32.83,33.14,65.68,66.26,98.57,99.34,13.78,13.86,31.76,13.95,45.54.16,10.72-10.72,21.14-21.73,31.87-32.43,47.54-47.41,95.15-94.75,142.71-142.14,14.03-13.98,14.09-31.94.22-45.93-6.45-6.51-12.95-12.97-19.43-19.44-2.48-2.48-5.07-4.83-8.16-6.53-12.74-7.05-26.66-4.59-38.14,6.84-42.75,42.54-85.52,85.07-128.15,127.72-2.96,2.96-4.41,2.95-7.31-.03-17.33-17.77-34.94-35.27-52.36-52.95-6.37-6.47-13.75-10.39-23.2-10.25Z"/>
        <path class="cls-2" d="M138.62,201.61c9.45-.15,16.83,3.78,23.2,10.25,17.42,17.68,35.03,35.19,52.36,52.95,2.91,2.98,4.36,2.99,7.31.03,42.63-42.66,85.4-85.19,128.15-127.72,11.49-11.43,25.4-13.89,38.14-6.84,3.09,1.71,5.68,4.06,8.16,6.53,6.48,6.47,12.98,12.93,19.43,19.44,13.87,13.99,13.81,31.95-.22,45.93-47.56,47.39-95.18,94.73-142.71,142.14-10.73,10.7-21.15,21.72-31.87,32.43-13.79,13.78-31.76,13.7-45.54-.16-32.89-33.08-65.74-66.2-98.57-99.34-14.04-14.17-14.03-31.82-.05-45.94,6.68-6.75,13.43-13.43,20.14-20.15,6.15-6.17,13.44-9.7,22.07-9.56Z"/>
      </g>
    </g>
  </g>
</svg>