<?xml version="1.0" encoding="UTF-8"?>
<svg xmlns="http://www.w3.org/2000/svg" version="1.1" viewBox="0 0 185.7 185.9">
  <defs>
    <style>
      .cls-1 {
        fill: #d19f70;
      }
    </style>
  </defs>
  <!-- Generator: Adobe Illustrator 28.7.1, SVG Export Plug-In . SVG Version: 1.2.0 Build 142)  -->
  <g>
    <g id="Camada_2">
      <g id="Camada_1-2">
        <path class="cls-1" d="M94.1,0C42-.3.4,40.4,0,91.8c-.4,52.2,40.9,94,92.8,94,51.1,0,92.4-41.1,92.8-92.4C186,42.2,144.9.3,94.1,0ZM5.5,88.4C7.1,53,30.8,21.6,64.5,10.2c33.3-11.3,71.2-.9,94,25.2,4.8,5.5,4.9,9.2.1,14.8-34.4,40.5-78.2,60.6-123.2,61.4-29.5-.3-30.9-1.9-30-23.3h0ZM9.8,118.7c.8-2.7,3-2,4.8-2,2.5,0,5.1.2,7.6.3,2.3,0,4.5,0,6.8,0,52.8-1,96.8-20.8,131.8-60.7,2.1-2.3,2.8-7.8,7.6-6,4,1.6,6.3,13.7,3.9,17.1-12.6,17.8-28.7,31.8-47.4,42.8-32.4,19.1-67.3,26.6-104.8,22.3-5-.6-11.7-9.5-10.4-14h0ZM20,139c5.4.4,10.7.6,15.9.7,3.5,0,6.9,0,10.3-.2,34.7-1.5,65.9-12,93.7-31.8,9.1-6.6,17.9-14.1,26.3-22.7,3.2-4.1,6.4-8.3,9.9-12.6,8.6,14.8,3.8,27.4-14.8,40.2-35,31.2-76,45.3-122.8,42.2-9.2-.6-11.2-2.4-18.5-15.7h0ZM131,170.9c-31,15-61,11.3-89.3-8.6,53.4.4,98.7-17.9,136.3-55.8-4.8,29.5-20.3,51.5-46.9,64.4h0Z"/>
      </g>
    </g>
  </g>
</svg>