<?xml version="1.0" encoding="UTF-8"?>
<svg xmlns="http://www.w3.org/2000/svg" version="1.1" viewBox="0 0 293.2 177.4">
  <defs>
    <style>
      .cls-1 {
        fill: #d19f70;
      }
    </style>
  </defs>
  <!-- Generator: Adobe Illustrator 28.7.1, SVG Export Plug-In . SVG Version: 1.2.0 Build 142)  -->
  <g>
    <g id="Camada_2">
      <g id="Camada_1-2">
        <path class="cls-1" d="M293,165.7c-1-2.2-3.1-1-4.7-.5-4.3,1.4-8.4,3.1-12.7,4.3-18.8,5.2-36.9,5.5-52.6-8.4-5.1-4.5-8.9-10-12.3-15.9-9-15.7-21.6-21-39.2-16.6-1.9.5-3.7,1.8-6.6.7,1.1-2.4,2.1-4.6,3.1-6.9,12.7-31.5,9.6-61.4-11.1-88.3C136.4,7.6,108.5-3.3,75.4.9,36.9,5.7,6.3,36.8.9,75.3c-5.5,38.7,15.6,76.4,51.8,92.4,35.5,15.7,77.4,5.7,102.5-24.4,7.9-9.5,18.7-11.9,30.2-11.3,10.1.5,16.5,7.2,21.3,15.6,9.1,16.1,22,27.2,41,29.4,14.9,1.7,28.9-2.1,42.6-7.6,1.8-.7,3.7-1.5,2.8-3.7h0ZM169,71.6c1.8,9.9-1.5,17.7-10.1,23.3-19.5,12.7-40.7,21.5-63.3,27.1-6.9,1.7-10.2-.8-10-7.6.8-10.9-2-9.7,10.6-13.1,24.2-6.6,46.8-16.7,66.7-32.2,4.4-3.4,5.2-1.8,6,2.6h0ZM158.7,45c.2.4.5.8.7,1.2,8.2,13,8.1,14.1-4.4,22.9-18.7,13.1-39.4,22.1-61.4,27.9-4.2,1.1-6.2.3-5.4-4.4,1.1-4.8,2.2-9.6,3.4-14.3.6-2.2,2.5-3,4.4-3.7,20.9-7.2,40.6-16.6,58.1-30.3,2.1-1.7,3.5-1.5,4.7.9ZM133.8,18.7c6.8,4.8,12.9,10.4,18.2,16.8.6.7,1.1,1.4,1.9,2.5-1.1.9-2.1,1.8-3.2,2.6-15.4,11.8-32.3,20.8-50.7,27.1-1.4.5-3,1.8-4.4.6-1.3-1.2-.4-3,.2-4.4,6.7-16.8,15.3-32.3,29.2-44.4,3.1-2.7,5.4-3.1,8.7-.8h0ZM69.4,7.3c-8.3,8-14.1,16.3-19.5,25.3-7.3-14.8-1.9-22.1,19.5-25.3ZM40,19.9c2.1-.3,2.1,1.1,2.1,2.4.1,5.2,1.7,10.1,3.4,15,.6,1.9.3,3.4-.4,5.1-2.6,6.4-5,12.8-7.8,19.9-5.5-10.1-6.9-20.2-7.9-30.5-.3-2.9,7.6-11.5,10.6-11.9h0ZM10.3,59.4c1.2,4.6,2.2,8.6,3.4,13.3-8-1.6-8.1-2.1-3.4-13.3ZM8.7,112.3c-1.3-4.2-3.1-8.4-2.3-13.3,6.9,1.8,13.3,4.8,20.2,5.7,2.6.3,4,1.8,3.5,4.7-.1.7.1,1.4,0,2-1.4,4.3,3.1,10.8-2.7,12.9-6,2.1-16.7-5.6-18.6-11.9h0ZM31,147.8c-6.6-6.2-11.7-12.6-15.5-20.2,13.6,1.1,16.7,5,15.5,20.2ZM32.1,87.3c-2.7,14.3-2.4,14.5-16.5,9.6-5.5-1.9-13.3-2.4-10.8-10.8.2-10.3.2-10.2,9.2-7.5,4.5,1.3,9.1,2.2,13.7,2.9,3.6.6,5.3,1.2,4.4,5.8h0ZM32.5,77c-2.4,1.6-12.2-1.7-13-4.1-4-13.1-8.8-26.4,5.1-38.1,1.4,11.6,4.2,22.3,9.3,32.4,1.9,3.7,2.2,7.4-1.4,9.9h0ZM40.5,156c-1.7-1.1-3-2.6-3.4-4.8-7.3-45.2-1.8-88,23.8-126.9,2.9-4.5,7-8.1,10.3-12.4,7.6-9.6,17.5-7.7,28.1-6.3-43.8,45.1-51.5,99.1-42.9,158.3-6-1.9-11-4.9-16-7.9h0ZM79.7,170.1c-.4,0-.9,0-1.3-.1-18-3.9-15,1.5-18.7-18.9-1.5-8.4-1.5-16.9-1.8-24.9.2-30.8,6.1-59.7,20.7-86.5,6.1-11.1,14-20.8,23.5-29.2,4-3.5,16.8-2.2,20.1,1.8,1.3,1.6,0,2.4-.8,3.3-41.3,42.8-46.7,94.7-37.9,150.1.6,3.9-.1,4.9-3.8,4.4h0ZM91.9,170c-1.9,0-2.7-1.3-3-3-1-5.7-2-11.4-3.2-17.9,11.9,4.9,22.9,9.4,36.5,13.3-10.7,5.6-20.2,7.6-30.2,7.7h0ZM142,149.8c-6.4,6-12.6,10.8-22.5,6.6-9.4-4-19.3-7-28.8-11.1-4.3-1.9-7.3-4.4-6.1-8.8,0-6.6,5.9-10.6,11.4-8.1,14.7,6.7,29.4,13.2,44.9,17.4,3.1.9,3,2,.9,3.9h0ZM156.1,133.4c-1.8,4.1-3.8,10.5-10.9,8.6-14.2-3.8-28.1-8.5-41-15.8,13.4-8.2,26.2-7.5,38.9,0,2.1,1.2,4.9,1.3,6.8,2.7,2.2,1.5,8,.3,6.1,4.5h0ZM157.7,126.2c-8.7-2.8-17.4-5.6-25.8-10.6,13.4-6.3,26-12.8,38.2-22.3-.6,12-3.8,22-8.6,31.7-.9,1.9-2.2,1.8-3.8,1.2Z"/>
      </g>
    </g>
  </g>
</svg>