<?xml version="1.0" encoding="UTF-8"?>
<svg id="Camada_2" xmlns="http://www.w3.org/2000/svg" viewBox="0 0 1944.64 177.34">
  <defs>
    <style>
      .cls-1 {
        fill: #d19f70;
      }
    </style>
  </defs>
  <g id="Camada_2-2" data-name="Camada_2">
    <g id="Camada_1-2">
      <path class="cls-1" d="M88.62,1.1C39.59.81.34,39.13,0,87.63c-.34,49.15,38.56,88.55,87.48,88.61,48.12.05,87.1-38.76,87.44-87.1C175.27,40.9,136.53,1.39,88.62,1.1ZM5.22,84.37C6.68,51.06,28.99,21.46,60.75,10.67,92.17,0,127.86,9.78,149.36,34.41c4.55,5.22,4.66,8.66.14,13.99-32.4,38.17-73.66,57.1-116.06,57.88-27.75-.32-29.12-1.75-28.23-21.92h0ZM9.24,112.91c.74-2.56,2.82-1.87,4.57-1.85,2.39.04,4.78.22,7.17.27,2.13.05,4.26,0,6.38,0,49.71-.96,91.23-19.64,124.16-57.16,1.93-2.2,2.65-7.39,7.18-5.61,3.74,1.47,5.96,12.89,3.67,16.15-11.82,16.81-27.07,29.92-44.64,40.29-30.51,17.99-63.44,25.09-98.71,21.04-4.75-.55-11-8.92-9.78-13.15h0ZM18.83,132.02c5.06.4,10.06.61,14.98.65,3.28.02,6.53-.04,9.75-.18,32.68-1.43,62.12-11.31,88.23-30.01,8.62-6.17,16.88-13.3,24.77-21.41,3.04-3.89,6.08-7.78,9.28-11.87,8.09,13.98,3.55,25.85-13.9,37.86-32.99,29.43-71.56,42.65-115.65,39.73-8.63-.57-10.56-2.31-17.47-14.77h0ZM123.39,162.16c-29.21,14.11-57.51,10.64-84.17-8.08,50.28.38,92.96-16.88,128.38-52.56-4.48,27.81-19.09,48.5-44.22,60.64h0Z"/>
    </g>
    <g id="Camada_1-2-2" data-name="Camada_1-2">
      <g>
        <path class="cls-1" d="M733.6,86.18c-2.78-5.63-3.55-10.06-1.98-16.17,3.56-13.89-5.94-26.36-20.19-28.04-8.48-1-16.33.9-23.78,4.85-9.21,4.88-17.13,11.46-23.74,19.43-3.01,3.64-5.47,4.26-9.65,2.07-13.21-6.94-27.01-12.58-41.36-16.7-4.31-1.24-5.25-2.81-4.11-7.5,4.44-18.26-4.48-31.99-22.61-36.47-9.4-2.32-18.41-.96-27.32,1.93-18.23,5.92-33.31,17.04-47.49,29.49-3.2,2.8-6.51,4.46-10.71,5.45-15.18,3.56-29.22,9.68-41.11,20.12-27.36,24.01-23.9,58.01,7.8,75.73,10.7,5.98,22.42,9.01,34.44,10.57,12.52,1.63,24.64,3.83,35.8,10.48,7.92,4.71,16.83,7.56,26.08,9.01,14.34,2.25,23.66-3.84,26.31-17.96.77-4.12,2.3-5.96,6.41-7.15,22.66-6.55,43.62-16.82,62.66-30.72,4.12-3.01,6.78-2.58,10.67,0,11.34,7.51,23.84,11.91,35.55,12.6,25.39.74,38.85-19.75,28.34-41.02v.03ZM467.06,133.73c-24.6-15.03-27.07-42.65-5.34-63.38,3.5-3.33,7.87-5.73,11.52-8.91,6.37-5.54,9.5-2.24,12.18,3.83,3.91,8.83,5.7,18.01,5.32,25.21-.58,17.27-5.55,30.33-14.89,41.94-3,3.72-5.09,3.59-8.8,1.32h0ZM676.35,93.56c-31.65,28.22-68.05,46.48-110.22,52.7-25.97,3.83-51.69,2.63-77.21-3.43-3.48-.83-6.98-1.69-10.42-4.11,8.85-11.33,15.46-23.55,17.31-38.04,1.83-14.2.26-27.78-6.71-40.31-2.64-4.74-2.01-6.33,3.11-7.94,28.16-8.84,56.71-8.63,85.42-3.96,35.49,5.77,67.91,19.55,98.56,38.04,4.87,2.94,2.97,4.54.17,7.04h0Z"/>
        <path class="cls-1" d="M476.37,87.59c-.43,4.4-1.61,7.87-6.36,7.51-4.49-.35-5.82-3.7-5.6-7.68.22-3.93,1.74-7.29,6.31-7.05,4.63.24,5.38,3.95,5.65,7.23h0Z"/>
      </g>
    </g>
    <g id="Camada_1-2-3" data-name="Camada_1-2">
      <g>
        <path class="cls-1" d="M1564.41,114.46c.35-1.01.92-1.95,1.21-2.98,3.55-12.97,15.01-22.23,16.9-36.01.26-1.86,2.12-3.66,3.93-3.69,9.34-.2,8.39-4.92,6.23-11.65-3.06-9.58.32-18.17,7.66-22.59,7.8-4.7,15.42-4.08,22.74,2.89,3.07,2.93,5.06,2.56,8.26.83,32.88-17.77,68.08-22.68,104.69-17.44,24.05,3.45,45.6,12.47,60.72,32.83,11.84,15.95,15.91,34.29,15.76,55.27,13.07-7.87,24.97-5.2,36.73-.39,10.18,4.16,20.03,9.24,30.4,12.83,22.88,7.92,39.49,1.68,52.31-18.95,2.54-4.09,4.65-8.47,6.87-12.74.87-1.68,1.52-3.94,3.89-3.12,2.93,1.01,1.92,3.56,1.07,5.43-3.02,6.6-6.41,12.99-10.83,18.81-13.17,17.33-29.33,22.97-50.45,17.24-5.16-1.4-10.16-3.43-15.13-5.45-8.44-3.44-16.65-7.48-25.21-10.57-15.41-5.56-24.48-2.52-34.32,10.45-3.1,4.09-6.97,7.42-11.38,10.14-17.82,11-37.76,15.08-58.11,17.6-40.69,5.03-81.12,1.09-121.42-4.41-14.87-2.03-29.69-5.11-43.35-11.88-10.3-5.11-12.86-11.66-9.17-22.43v-.02ZM1603.77,41.98c-6.19,3.55-8.12,9.88-5.84,17.33,1.05,3.45,2.17,3.7,4.81,1.6,6.04-4.79,12.2-9.43,18.31-14.14-5.73-6.82-11.16-8.29-17.29-4.79h0ZM1789.18,132.53c-18.17-15.29-46.35-8.61-59.29,14.06,10.85,2.87,45.61-5.38,59.29-14.06ZM1681.56,149.51c-12.3-14.94-32.15-16.7-46.75-4.79,15.34,3.37,30.37,3.26,46.75,4.79h0ZM1580.72,128.95c-1.6,4.52.58,5.68,3.99,6.77,12.32,3.95,24.96,6.42,37.73,8.34,3.14.47,4.98-1.13,7.06-2.9,18.05-15.38,41.61-13.51,57.08,4.75,2.54,3,4.96,4.52,8.88,4.03,2.92-.37,5.96-.58,8.86-.19,10.76,1.45,17.63-1.93,24.33-11.64,13.12-19.03,41.11-27.72,63.34-11.33,3.12,2.3,5.17,1.71,7.65-.61,4.77-4.45,7.34-9.76,7.43-16.35.57-41.76-24.97-72.51-66.26-79.59-6.88-1.18-13.83-2-19.35-2.78-46.67-1.45-86.83,11.17-120.37,42.43-3.16,2.95-6.09,5.58-4.96,10.91.64,3-1.37,7.36-4.87,7.39-9.3.09-11.37,7.38-14.96,13.33-2.99,4.97-5.39,9.3,1.33,14.02,4.01,2.81,4.76,8.61,3.06,13.41h.01ZM1572.86,129.2c2.63.93,2.66-2.12,2.63-3.8-.06-3.03-.82-6.33-4.08-7.21-2.63-.72-2.23,2.3-2.85,3.74-.08,3.43,1.49,6.29,4.29,7.27Z"/>
        <path class="cls-1" d="M1676,48.55c-7.44-.17-13.6,2.66-18.62,8.04-1.4,1.5-3.56,3.19-1.63,5.48,2.23,2.66,3.55-.09,5.2-1.23,2.62-1.83,5.23-3.81,8.12-5.11,6.32-2.8,12.1-2.28,16.14,4.13,3.86,6.12,2.34,11.74-2.06,16.85-2.3,2.68-5.31,4.45-8.6,5.76-1.72.68-2.46,2.15-1.69,3.9.67,1.52,2.17,1.23,3.5,1.06,8.13-1.04,17.45-13.25,16.86-22.09-.64-9.59-7.85-16.63-17.23-16.8h0Z"/>
        <path class="cls-1" d="M1612.44,92.17c-.11,4.82,1.51,8.99,6.64,9.48,5.13.49,7.71-3.11,8.07-8.07.36-4.87-1.44-9.01-6.54-9.49-5.06-.48-7.61,3.16-8.17,8.08h0Z"/>
      </g>
    </g>
    <g id="Camada_1-2-4" data-name="Camada_1-2">
      <path class="cls-1" d="M1296.36,165.68c-.99-2.24-3.12-1.01-4.72-.49-4.26,1.38-8.41,3.13-12.72,4.31-18.79,5.16-36.87,5.5-52.63-8.4-5.1-4.5-8.91-10.02-12.28-15.89-9.03-15.7-21.59-20.99-39.16-16.61-1.91.48-3.68,1.8-6.63.72,1.07-2.4,2.14-4.6,3.06-6.87,12.73-31.5,9.59-61.43-11.09-88.33-20.37-26.48-48.33-37.43-81.36-33.26-38.54,4.87-69.1,35.98-74.58,74.41-5.52,38.71,15.62,76.44,51.78,92.43,35.49,15.69,77.43,5.68,102.48-24.39,7.88-9.46,18.71-11.91,30.22-11.31,10.15.53,16.49,7.17,21.28,15.58,9.15,16.05,22.02,27.19,41,29.35,14.87,1.69,28.92-2.05,42.59-7.58,1.8-.73,3.71-1.5,2.75-3.68h.01ZM1172.39,71.62c1.82,9.95-1.54,17.72-10.09,23.31-19.53,12.74-40.74,21.52-63.33,27.06-6.92,1.7-10.25-.84-9.98-7.63.75-10.94-2-9.68,10.6-13.14,24.19-6.64,46.85-16.65,66.75-32.18,4.43-3.45,5.24-1.8,6.04,2.57h.01ZM1162.08,45.05c.19.4.46.77.7,1.15,8.16,13.04,8.09,14.1-4.44,22.85-18.73,13.09-39.38,22.06-61.44,27.9-4.17,1.11-6.15.3-5.41-4.43,1.11-4.78,2.18-9.58,3.37-14.34.56-2.23,2.51-3.04,4.44-3.71,20.88-7.2,40.61-16.61,58.08-30.33,2.1-1.65,3.54-1.54,4.7.91ZM1137.21,18.67c6.82,4.8,12.9,10.35,18.2,16.77.56.68,1.09,1.4,1.95,2.52-1.08.89-2.1,1.76-3.16,2.57-15.41,11.8-32.34,20.77-50.65,27.13-1.37.48-3.01,1.81-4.38.55-1.33-1.23-.41-2.96.15-4.37,6.72-16.77,15.31-32.26,29.16-44.41,3.1-2.72,5.39-3.11,8.72-.77h.01ZM1072.78,7.3c-8.26,8.04-14.12,16.34-19.51,25.27-7.29-14.84-1.94-22.08,19.51-25.27ZM1043.4,19.94c2.08-.29,2.12,1.12,2.14,2.44.11,5.22,1.73,10.1,3.36,14.96.64,1.91.28,3.39-.41,5.1-2.57,6.36-5.03,12.77-7.8,19.86-5.52-10.1-6.91-20.23-7.87-30.45-.27-2.91,7.62-11.49,10.57-11.91h0ZM1013.7,59.37c1.18,4.58,2.21,8.58,3.43,13.31-7.96-1.63-8.06-2.08-3.43-13.31ZM1012.06,112.33c-1.27-4.2-3.12-8.36-2.34-13.28,6.93,1.85,13.26,4.76,20.16,5.65,2.58.33,3.98,1.84,3.51,4.65-.11.65.14,1.39-.05,2-1.37,4.3,3.08,10.84-2.66,12.88-6.03,2.14-16.7-5.57-18.61-11.89h-.01ZM1034.35,147.75c-6.62-6.16-11.71-12.6-15.5-20.2,13.56,1.12,16.72,5.03,15.5,20.2ZM1035.5,87.29c-2.68,14.26-2.44,14.48-16.49,9.62-5.53-1.91-13.27-2.44-10.83-10.84.19-10.28.15-10.16,9.2-7.52,4.47,1.3,9.08,2.24,13.69,2.94,3.63.55,5.32,1.16,4.44,5.8h0ZM1035.85,77.04c-2.37,1.64-12.24-1.7-12.98-4.13-3.99-13.13-8.82-26.44,5.12-38.13,1.35,11.58,4.2,22.3,9.28,32.35,1.88,3.71,2.22,7.39-1.42,9.92h0ZM1043.9,155.99c-1.73-1.05-3.02-2.6-3.37-4.8-7.26-45.16-1.81-87.96,23.76-126.93,2.92-4.45,7.01-8.12,10.31-12.35,7.56-9.65,17.46-7.67,28.14-6.31-43.76,45.07-51.46,99.07-42.9,158.25-6.05-1.86-11.01-4.87-15.95-7.87h.01ZM1083.06,170.09c-.44-.06-.9-.05-1.34-.14-17.96-3.87-14.96,1.51-18.7-18.87-1.55-8.43-1.49-16.95-1.78-24.91.16-30.83,6.11-59.71,20.75-86.5,6.08-11.13,13.96-20.82,23.47-29.19,3.98-3.5,16.76-2.24,20.06,1.83,1.32,1.63.05,2.36-.83,3.27-41.28,42.79-46.69,94.69-37.89,150.09.63,3.95-.14,4.93-3.75,4.42h.01ZM1095.27,169.99c-1.86.02-2.72-1.34-3.03-3.04-1.03-5.68-2.04-11.37-3.21-17.92,11.87,4.92,22.94,9.41,36.45,13.28-10.72,5.55-20.2,7.61-30.21,7.69h0ZM1145.39,149.8c-6.37,6.03-12.56,10.82-22.49,6.63-9.44-3.99-19.32-6.99-28.76-11.11-4.33-1.89-7.31-4.45-6.07-8.8.04-6.6,5.88-10.61,11.42-8.07,14.65,6.71,29.37,13.17,44.94,17.44,3.13.86,3.02,1.96.95,3.91h.01ZM1159.47,133.35c-1.76,4.06-3.79,10.52-10.88,8.63-14.23-3.8-28.14-8.47-41.03-15.83,13.39-8.19,26.2-7.5,38.94.02,2.08,1.23,4.86,1.34,6.84,2.67,2.19,1.48,7.97.3,6.14,4.5h0ZM1161.05,126.23c-8.7-2.8-17.38-5.61-25.78-10.55,13.37-6.27,26.04-12.77,38.22-22.33-.62,12.01-3.79,22.03-8.6,31.65-.95,1.91-2.2,1.75-3.84,1.23Z"/>
    </g>
  </g>
</svg>