<?xml version="1.0" encoding="UTF-8"?>
<svg xmlns="http://www.w3.org/2000/svg" version="1.1" viewBox="0 0 328 195.9">
  <defs>
    <style>
      .cls-1 {
        fill: #d19f70;
      }
    </style>
  </defs>
  <!-- Generator: Adobe Illustrator 28.7.1, SVG Export Plug-In . SVG Version: 1.2.0 Build 142)  -->
  <g>
    <g id="Camada_2">
      <g id="Camada_1-2">
        <g>
          <path class="cls-1" d="M303.7,92.2c-2.8-5.6-3.5-10.1-2-16.2,3.6-13.9-5.9-26.4-20.2-28-8.5-1-16.3.9-23.8,4.9-9.2,4.9-17.1,11.5-23.7,19.4-3,3.6-5.5,4.3-9.6,2.1-13.2-6.9-27-12.6-41.4-16.7-4.3-1.2-5.3-2.8-4.1-7.5,4.4-18.3-4.5-32-22.6-36.5-9.4-2.3-18.4-1-27.3,1.9-18.2,5.9-33.3,17-47.5,29.5-3.2,2.8-6.5,4.5-10.7,5.4-15.2,3.6-29.2,9.7-41.1,20.1-27.4,24-23.9,58,7.8,75.7,10.7,6,22.4,9,34.4,10.6,12.5,1.6,24.6,3.8,35.8,10.5,7.9,4.7,16.8,7.6,26.1,9,14.3,2.2,23.7-3.8,26.3-18,.8-4.1,2.3-6,6.4-7.2,22.7-6.5,43.6-16.8,62.7-30.7,4.1-3,6.8-2.6,10.7,0,11.3,7.5,23.8,11.9,35.5,12.6,25.4.7,38.8-19.7,28.3-41h0ZM37.2,139.7c-24.6-15-27.1-42.6-5.3-63.4,3.5-3.3,7.9-5.7,11.5-8.9,6.4-5.5,9.5-2.2,12.2,3.8,3.9,8.8,5.7,18,5.3,25.2-.6,17.3-5.5,30.3-14.9,41.9-3,3.7-5.1,3.6-8.8,1.3h0ZM246.4,99.5c-31.7,28.2-68,46.5-110.2,52.7-26,3.8-51.7,2.6-77.2-3.4-3.5-.8-7-1.7-10.4-4.1,8.8-11.3,15.5-23.5,17.3-38,1.8-14.2.3-27.8-6.7-40.3-2.6-4.7-2-6.3,3.1-7.9,28.2-8.8,56.7-8.6,85.4-4,35.5,5.8,67.9,19.6,98.6,38,4.9,2.9,3,4.5.2,7h0Z"/>
          <path class="cls-1" d="M46.5,93.6c-.4,4.4-1.6,7.9-6.4,7.5-4.5-.3-5.8-3.7-5.6-7.7.2-3.9,1.7-7.3,6.3-7.1,4.6.2,5.4,3.9,5.6,7.2h0Z"/>
        </g>
      </g>
    </g>
  </g>
</svg>