<?xml version="1.0" encoding="UTF-8"?>
<svg xmlns="http://www.w3.org/2000/svg" version="1.1" viewBox="0 0 425 216.2">
  <defs>
    <style>
      .cls-1 {
        fill: #d19f70;
      }
    </style>
  </defs>
  <!-- Generator: Adobe Illustrator 28.7.1, SVG Export Plug-In . SVG Version: 1.2.0 Build 142)  -->
  <g>
    <g id="Camada_2">
      <g id="Camada_1-2">
        <g>
          <path class="cls-1" d="M23.4,126.5c.3-1,.9-2,1.2-3,3.6-13,15-22.2,16.9-36,.3-1.9,2.1-3.7,3.9-3.7,9.3-.2,8.4-4.9,6.2-11.7-3.1-9.6.3-18.2,7.7-22.6,7.8-4.7,15.4-4.1,22.7,2.9,3.1,2.9,5.1,2.6,8.3.8,32.9-17.8,68.1-22.7,104.7-17.4,24.1,3.4,45.6,12.5,60.7,32.8,11.8,16,15.9,34.3,15.8,55.3,13.1-7.9,25-5.2,36.7-.4,10.2,4.2,20,9.2,30.4,12.8,22.9,7.9,39.5,1.7,52.3-18.9,2.5-4.1,4.7-8.5,6.9-12.7.9-1.7,1.5-3.9,3.9-3.1,2.9,1,1.9,3.6,1.1,5.4-3,6.6-6.4,13-10.8,18.8-13.2,17.3-29.3,23-50.4,17.2-5.2-1.4-10.2-3.4-15.1-5.5-8.4-3.4-16.7-7.5-25.2-10.6-15.4-5.6-24.5-2.5-34.3,10.4-3.1,4.1-7,7.4-11.4,10.1-17.8,11-37.8,15.1-58.1,17.6-40.7,5-81.1,1.1-121.4-4.4-14.9-2-29.7-5.1-43.3-11.9-10.3-5.1-12.9-11.7-9.2-22.4h0ZM62.7,54c-6.2,3.5-8.1,9.9-5.8,17.3,1.1,3.4,2.2,3.7,4.8,1.6,6-4.8,12.2-9.4,18.3-14.1-5.7-6.8-11.2-8.3-17.3-4.8h0ZM248.1,144.6c-18.2-15.3-46.3-8.6-59.3,14.1,10.8,2.9,45.6-5.4,59.3-14.1ZM140.5,161.6c-12.3-14.9-32.2-16.7-46.8-4.8,15.3,3.4,30.4,3.3,46.8,4.8h0ZM39.7,141c-1.6,4.5.6,5.7,4,6.8,12.3,3.9,25,6.4,37.7,8.3,3.1.5,5-1.1,7.1-2.9,18.1-15.4,41.6-13.5,57.1,4.8,2.5,3,5,4.5,8.9,4,2.9-.4,6-.6,8.9-.2,10.8,1.5,17.6-1.9,24.3-11.6,13.1-19,41.1-27.7,63.3-11.3,3.1,2.3,5.2,1.7,7.6-.6,4.8-4.4,7.3-9.8,7.4-16.3.6-41.8-25-72.5-66.3-79.6-6.9-1.2-13.8-2-19.4-2.8-46.7-1.5-86.8,11.2-120.4,42.4-3.2,2.9-6.1,5.6-5,10.9.6,3-1.4,7.4-4.9,7.4-9.3,0-11.4,7.4-15,13.3-3,5-5.4,9.3,1.3,14,4,2.8,4.8,8.6,3.1,13.4h0ZM31.8,141.2c2.6.9,2.7-2.1,2.6-3.8,0-3-.8-6.3-4.1-7.2-2.6-.7-2.2,2.3-2.8,3.7,0,3.4,1.5,6.3,4.3,7.3Z"/>
          <path class="cls-1" d="M135,60.6c-7.4-.2-13.6,2.7-18.6,8-1.4,1.5-3.6,3.2-1.6,5.5,2.2,2.7,3.6,0,5.2-1.2,2.6-1.8,5.2-3.8,8.1-5.1,6.3-2.8,12.1-2.3,16.1,4.1,3.9,6.1,2.3,11.7-2.1,16.9-2.3,2.7-5.3,4.4-8.6,5.8-1.7.7-2.5,2.2-1.7,3.9.7,1.5,2.2,1.2,3.5,1.1,8.1-1,17.4-13.3,16.9-22.1-.6-9.6-7.9-16.6-17.2-16.8h0Z"/>
          <path class="cls-1" d="M71.4,104.2c-.1,4.8,1.5,9,6.6,9.5,5.1.5,7.7-3.1,8.1-8.1.4-4.9-1.4-9-6.5-9.5-5.1-.5-7.6,3.2-8.2,8.1h0Z"/>
        </g>
      </g>
    </g>
  </g>
</svg>