<?xml version="1.0" encoding="UTF-8"?>
<svg id="Camada_2" data-name="Camada 2" xmlns="http://www.w3.org/2000/svg" version="1.1" viewBox="0 0 524.4 564">
  <defs>
    <style>
      .cls-1 {
        fill: #d19f70;
        stroke-width: 0px;
      }
    </style>
  </defs>
  <g id="Camada_1-2" data-name="Camada 1-2">
    <path class="cls-1" d="M20.3,0c25.2,10.9,50.4,21.8,75.7,32.5,20.5,8.7,20.5,8.5,20.5,31.4v42.8c51.4,7.1,101.3,14,151.3,20.9,80.2,11,160.4,22,240.6,33.1,10.7,1.5,16,7.6,16,18.7-.1,43,.3,86.1-.2,129.1-.4,34.4-28.2,62.3-62.5,62.4-104.5.3-209,.3-313.4-.1-10.1,0-20.2-3.8-32.5-6.2.8,16.1.3,32.7,2.7,48.8,2.5,16.2,16.8,24.7,37.1,24.7,65.6,0,131.2,0,196.8,0s57.7,0,86.5,0c37.3.1,63.9,20.8,68.3,52.9,4.8,35.2-13.9,61.5-50.9,71.9-.8.2-1.5.8-2.2,1.2h-20.1c-3-1.2-6-2.5-9-3.6-31.4-11.2-48.6-42.5-40.8-74.9,1.3-5.4,3.4-10.5,5.3-16.2h-135.7c1.4,13.7,5.2,27.4,3.6,40.5-3.6,29.9-23.9,46-51.5,54.2h-20.1c-25.3-7-45.7-20.6-50.6-47.6-2.8-15.1.6-31.4,1.3-48.5-42.1-17.7-50.9-31.1-50.9-81.9,0-104.3-.1-208.6.2-313,0-8.4-2.4-12.5-10.3-15.6-20.2-7.8-40-16.5-59.9-25.1C-3.3,24.3-4.9,13.8,10.2,0h10ZM116.5,138.1c0,57.8-.6,113.7.3,169.6.3,20.5,14.7,32.4,35.5,32.6,26.3.3,52.6,0,79,0,74.8,0,149.6,0,224.4,0,23,0,37.2-12.8,37.6-34.6.5-35.9.4-71.9-.2-107.8,0-3.2-4.9-8.6-8.1-9.1-19.7-3.4-39.6-5.6-59.5-8.4-64.5-8.9-128.9-17.9-193.4-26.8-37.9-5.2-75.9-10.3-115.6-15.6h0ZM195.9,468.9c-17.4-.1-32.1,13.9-32.4,31.1-.4,17.7,14.6,32.8,32.2,32.6,17.3-.2,31.9-14.8,31.9-31.8s-14.6-31.8-31.7-31.9h0ZM477.1,501c.1-17.6-14.1-32-31.5-32.1-17.5,0-31.9,14.1-32,31.6-.1,17.5,14,31.9,31.6,32.1,17.5.2,31.9-14,32-31.7h0Z"/>
  </g>
</svg>