<?xml version="1.0" encoding="UTF-8"?>
<svg id="Camada_2" data-name="Camada 2" xmlns="http://www.w3.org/2000/svg" version="1.1" viewBox="0 0 490 490">
  <defs>
    <style>
      .cls-1 {
        fill: #8d162b;
        stroke-width: 0px;
      }
    </style>
  </defs>
  <g id="Camada_1-2" data-name="Camada 1-2">
    <g>
      <path class="cls-1" d="M231,0h28c.7.1,1.4.4,2.2.4,12.7.8,25.3,2.6,37.8,5.4,48,10.9,89.2,34.1,123.1,69.7,38.1,40,60.2,87.5,66.5,142.4.5,4.5.9,9.1,1.4,13.6v27.5c-.3,2.8-.7,5.6-.9,8.4-2.6,29.9-10.5,58.3-23.8,85.1-20.9,42.3-51.4,75.9-91.4,100.8-31.4,19.5-65.5,31.2-102.3,35.2-4.9.5-9.8,1-14.6,1.4h-24c-.8-.1-1.6-.4-2.4-.4-17.3-1-34.3-3.7-50.9-8.4-54.6-15.4-98.8-46-132.4-91.6C21.2,354.4,6.1,314.7,1.4,271.1c-.5-4.7-.9-9.4-1.4-14.1v-24c.2-1.2.3-2.4.5-3.7,1.4-11,2.2-22.1,4.4-32.9,8.7-43.2,27.6-81.6,57.1-114.4C103.6,35.8,155.5,8.9,217.4,1.5c4.5-.6,9.1-1,13.6-1.5ZM370.1,410.1c59.4-43.7,100-127.2,75.3-219.3-24-89.8-107-153.6-199.4-153.5-94.2,0-176.9,63.2-201.3,153.8-24.2,90,14.5,174.6,75.1,219.4.4-2.6,1-5,1.2-7.5.6-6.2.7-12.5,1.7-18.6,14.2-84.8,105.5-129.3,179.5-89.9,24.2,12.9,43.3,30.8,55,56,7.4,16,10.8,32.8,11.8,50.3.2,3,.7,6,1.1,9.3Z"/>
      <path class="cls-1" d="M328.8,176.4c-.6,48-37.8,84.3-85.8,83.6-45.3-.6-82.2-38.4-81.7-83.6.6-47.3,38.3-84.5,85.1-83.8,45.3.6,82.9,38.9,82.4,83.8h0Z"/>
    </g>
  </g>
</svg>