<?xml version="1.0" encoding="UTF-8"?>
<svg id="Camada_2" data-name="Camada 2" xmlns="http://www.w3.org/2000/svg" version="1.1" viewBox="0 0 479.8 476.7">
  <defs>
    <style>
      .cls-1 {
        fill: #d19f70;
        stroke-width: 0px;
      }
    </style>
  </defs>
  <g id="Camada_1-2" data-name="Camada 1-2">
    <path class="cls-1" d="M477.9,210.2c-12.3-83.6-55.9-145.2-130.5-184.6-24.2-12.8-50.2-20.3-77.3-23.6-2-.2-2-.2-3.2-1.9h-54c.3,2.4-1.7,1.7-2.7,1.9C126,14.3,64.2,58.3,24.9,133.7c-12.4,23.8-19.7,49.3-23,76-.2,1.9-.2,1.9-1.9,3.2v53c2.6,0,1.7,2.1,1.9,3.4,11.5,80.9,53,141.4,124,181.6,23.4,13.2,48.6,21.3,75.1,25.8.5,0,1,0,1.5-.1,0-1.7.2-3.3.2-5,0-52.1,0-104.3.1-156.4,0-4.7-1-6.3-5.9-6.2-16.8.3-33.6,0-50.5.2-3.8,0-4.7-1-4.7-4.7.2-20,.2-40,0-60,0-3.8,1-4.7,4.7-4.7,17.3.2,34.6,0,52,.2,3.6,0,4.4-1.1,4.4-4.5-.1-17.3,0-34.6,0-52,0-13.8,2.3-27.2,7.6-39.9,12.2-28.9,34.8-44.2,65.1-48.6,23-3.3,45.8,0,68.6,2.9,2.1.3,2.7,1.4,2.7,3.3,0,17.7,0,35.3,0,53,0,3.1-1.8,2.9-3.9,3-10.5.2-21-.6-31.5.4-22.1,2.2-33.4,13.7-34.2,35.9-.5,14.3,0,28.6-.2,43,0,3.7,2,3.4,4.4,3.4,19.3,0,38.6,0,58,0,3.4,0,4.4.4,3.7,4.3-3.4,20.3-6.4,40.7-9.3,61.1-.5,3.4-2,3.9-4.9,3.9-15.8-.1-31.6,0-47.5-.1-3.1,0-4.4.7-4.4,4.1.1,54.1,0,108.3.1,162.4,0,.3.1.7.2,1,15.5-1.6,30.4-5.6,44.8-11.3,85.2-33.7,136.6-95.7,154.3-185.6.7-3.6.9-7.3,1.5-10.9.2-1.1-.5-3,1.8-2.8v-53c-2.4.4-1.7-1.7-1.9-2.7h0Z"/>
  </g>
</svg>