<?xml version="1.0" encoding="UTF-8"?>
<svg id="Camada_2" data-name="Camada 2" xmlns="http://www.w3.org/2000/svg" viewBox="0 0 944.12 408.62">
  <defs>
    <style>
      .cls-1 {
        fill: #d19f71;
      }

      .cls-1, .cls-2 {
        stroke-width: 0px;
      }

      .cls-2 {
        fill: #8c0327;
      }
    </style>
  </defs>
  <g id="Camada_1-2" data-name="Camada 1">
    <g>
      <g>
        <g>
          <path class="cls-1" d="M109.74,301.74c-20.64,0-36.8-3.75-48.48-11.24-11.68-7.5-17.52-15.53-17.52-24.09,0-9.74,8.37-19.47,25.12-29.2-2.53-.78-4.87-1.95-7.01-3.5-6.62-4.67-9.93-11.97-9.93-21.9,0-9.15,2.48-17.67,7.45-25.55,4.96-7.88,10.66-14.06,17.09-18.54-12.85-10.71-19.27-23.75-19.27-39.13s6.47-28.57,19.42-39.57c12.95-11,30.52-16.79,52.71-17.38h61.91v5.84h-28.33c12.07,4.87,21.47,11.83,28.18,20.88,6.72,9.05,10.08,19.13,10.08,30.23,0,15.38-6.52,28.72-19.57,40.01-13.05,11.29-30.28,16.94-51.69,16.94-17.52,0-33.88-4.77-49.06-14.31-2.92,1.95-5.5,4.43-7.74,7.45-2.24,3.02-3.36,6.09-3.36,9.2,0,4.28,2.63,7.16,7.89,8.62s11.97,2.19,20.15,2.19h54.9c38.35,0,57.53,10.91,57.53,32.71v1.17c0,18.3-9.78,34.41-29.35,48.33-19.57,13.92-43.27,20.88-71.11,20.88ZM115.87,295.61c17.71,0,33.63-3.85,47.75-11.54,14.11-7.69,21.17-16.4,21.17-26.14,0-5.84-3.46-10.37-10.37-13.58-6.91-3.21-18.84-4.82-35.78-4.82h-53.44c-3.7,0-7.2-.29-10.51-.88-4.28,6.62-6.43,14.02-6.43,22.19,0,11.29,4.28,19.9,12.85,25.85,8.56,5.94,20.15,8.91,34.75,8.91ZM129.31,182.58c7.98,0,14.36-5.35,19.13-16.06,4.77-10.71,7.16-23.36,7.16-37.97s-2.39-27.26-7.16-37.97c-4.77-10.71-11.15-16.06-19.13-16.06s-14.65,5.36-19.42,16.06c-4.77,10.71-7.16,23.36-7.16,37.97s2.38,27.26,7.16,37.97c4.77,10.71,11.24,16.06,19.42,16.06Z"/>
          <path class="cls-1" d="M252.54,229.02c-10.91,0-19.71-2.67-26.43-8.03-6.72-5.35-10.08-12.51-10.08-21.46s3.94-16.74,11.83-24.53c7.88-7.78,21.36-15.48,40.45-23.07l40.3-15.77v-21.03c0-9.93-2.48-18.64-7.45-26.14-4.96-7.49-12.9-11.24-23.8-11.24-2.73,0-6.13.58-10.22,1.75-9.54,2.53-14.51,10.51-14.89,23.95,0,11.1-4.09,16.65-12.27,16.65-6.62,0-10.32-3.89-11.1-11.68,0-5.45,2.14-11,6.43-16.65,4.28-5.64,10.61-10.41,18.98-14.31,8.37-3.89,18.59-5.84,30.66-5.84,17.33,0,32.42,4.23,45.27,12.7,12.85,8.47,19.28,19.91,19.28,34.31v78.85c0,9.35,3.31,14.31,9.93,14.89,4.48,0,7.78-2.63,9.93-7.88l2.92,2.04c-1.56,5.06-5.6,10.03-12.12,14.89-6.52,4.87-14.36,7.3-23.51,7.3-8.37,0-15.14-2.53-20.3-7.59-5.16-5.06-7.74-11.58-7.74-19.57v-11.1c-2.53,6.43-6.38,12.56-11.54,18.4-5.16,5.84-11.49,10.66-18.98,14.46-7.5,3.8-16.02,5.7-25.55,5.7ZM275.91,206.24c7.98,0,15.43-3.6,22.34-10.81,6.91-7.2,10.37-14.89,10.37-23.07v-29.79l-20.15,8.18c-20.06,9.15-30.08,21.03-30.08,35.63,0,5.26,1.46,9.88,4.38,13.87,2.92,3.99,7.3,5.99,13.14,5.99Z"/>
          <path class="cls-1" d="M429.52,228.73c-9.54,0-17.13-2.53-22.78-7.59-5.65-5.06-8.47-11.58-8.47-19.57v-98.13c0-7.98-1.02-13.92-3.07-17.82-2.04-3.89-4.63-6.47-7.74-7.74-3.12-1.26-6.23-1.9-9.35-1.9v-4.38c10.12,0,19.08-2.53,26.87-7.59,7.78-5.06,14.16-11.24,19.13-18.54,4.96-7.3,8.42-14.55,10.37-21.76h4.67v47.9h22.78l-2.34,4.38h-20.44v121.49c0,9.35,4.09,14.31,12.27,14.89,5.64,0,9.64-2.63,11.97-7.88l2.92,2.04c-1.36,5.06-5.26,10.03-11.68,14.89-6.43,4.87-14.8,7.3-25.12,7.3Z"/>
          <path class="cls-1" d="M613.47,220.96c-15.55-7.66-27.49-17.56-35.83-29.7-8.35-12.14-13.06-25.15-14.14-39.03-1.09-13.88,1.56-27.28,7.93-40.21,6.37-12.92,15.38-23.19,27.05-30.79,11.66-7.6,24.85-11.79,39.57-12.58,14.71-.78,29.83,2.65,45.38,10.31s27.18,17.41,35.44,29.5c8.25,12.1,12.92,25.09,14.01,38.97,1.08,13.88-1.56,27.28-7.93,40.21-6.37,12.93-15.39,23.19-27.05,30.79-11.67,7.6-24.81,11.82-39.43,12.64-14.63.83-29.62-2.55-44.99-10.12ZM615.79,215.59c11.7,5.76,24.29,3.89,37.78-5.64,13.48-9.52,24.61-23.2,33.39-41.01,8.78-17.81,12.83-34.97,12.17-51.47-.66-16.49-6.85-27.63-18.55-33.39s-24.29-3.88-37.78,5.64c-13.48,9.53-24.61,23.2-33.39,41.01-8.78,17.82-12.84,34.97-12.17,51.47.66,16.5,6.84,27.63,18.55,33.39Z"/>
        </g>
        <g>
          <path class="cls-1" d="M265.48,396.94c-19.47,0-36.02-7.01-49.65-21.03-13.63-14.02-20.44-31.93-20.44-53.74,0-23.55,7.93-43.22,23.8-58.99,15.87-15.77,34.9-23.65,57.09-23.65,11.29,0,20.98,1.95,29.06,5.84,8.08,3.9,14.31,8.67,18.69,14.31,4.38,5.65,6.57,11.2,6.57,16.65,0,7.59-3.7,11.49-11.1,11.68-4.09,0-6.96-1.21-8.62-3.65-1.66-2.43-2.68-5.01-3.07-7.74-.39-2.72-.58-4.48-.58-5.26-.2-7.59-1.8-13.24-4.82-16.94-3.02-3.7-6.48-6.08-10.37-7.15-3.9-1.07-7.01-1.61-9.35-1.61-11.49,0-21.86,6.18-31.1,18.54-9.25,12.37-13.87,27.41-13.87,45.12s4.67,31.44,14.02,42.93c9.35,11.49,21.22,17.23,35.63,17.23,10.9,0,20.34-3.11,28.33-9.35,7.98-6.23,13.53-14.11,16.65-23.65l2.34.88c-2.73,16.75-10.42,30.86-23.07,42.34-12.66,11.49-28.04,17.23-46.14,17.23Z"/>
          <path class="cls-1" d="M413.54,396.94c-19.47,0-36.02-7.01-49.65-21.03-13.63-14.02-20.44-31.93-20.44-53.74,0-23.55,7.93-43.22,23.8-58.99,15.87-15.77,34.9-23.65,57.09-23.65,11.29,0,20.98,1.95,29.06,5.84,8.08,3.9,14.31,8.67,18.69,14.31,4.38,5.65,6.57,11.2,6.57,16.65,0,7.59-3.7,11.49-11.1,11.68-4.09,0-6.96-1.21-8.62-3.65-1.66-2.43-2.68-5.01-3.07-7.74-.39-2.72-.58-4.48-.58-5.26-.2-7.59-1.8-13.24-4.82-16.94-3.02-3.7-6.48-6.08-10.37-7.15-3.9-1.07-7.01-1.61-9.35-1.61-11.49,0-21.86,6.18-31.1,18.54-9.25,12.37-13.87,27.41-13.87,45.12s4.67,31.44,14.02,42.93c9.35,11.49,21.22,17.23,35.63,17.23,10.9,0,20.34-3.11,28.33-9.35,7.98-6.23,13.53-14.11,16.65-23.65l2.34.88c-2.73,16.75-10.42,30.86-23.07,42.34-12.66,11.49-28.04,17.23-46.14,17.23Z"/>
          <path class="cls-1" d="M778.29,396.07h-87.61v-4.38c7.78-.58,13.63-2.58,17.52-5.99,3.89-3.4,5.84-9.39,5.84-17.96v-57.24c0-33.29-8.76-50.13-26.28-50.52-9.35,0-17.13,3.85-23.36,11.54-6.23,7.69-9.35,15.53-9.35,23.51v72.72c0,8.57,1.94,14.56,5.84,17.96,3.89,3.41,9.73,5.4,17.52,5.99v4.38h-87.61v-4.38c7.78-.58,13.63-2.58,17.52-5.99,3.89-3.4,5.84-9.39,5.84-17.96v-93.16c0-7.98-1.8-12.85-5.4-14.6-3.6-1.75-7.64-2.63-12.12-2.63v-2.92l55.49-14.89,2.92,1.46v35.04c1.17-3.7,3.8-8.37,7.89-14.02,4.09-5.64,9.64-10.81,16.65-15.48,7.01-4.67,15.67-7.01,25.99-7.01,14.99,0,26.96,5.55,35.92,16.65,8.95,11.1,13.43,25.6,13.43,43.51v68.05c0,8.57,1.94,14.56,5.84,17.96,3.89,3.41,9.73,5.4,17.52,5.99v4.38Z"/>
          <path class="cls-1" d="M831.21,401.99c-16.21-6.12-29.06-14.82-38.53-26.1-9.48-11.28-15.43-23.77-17.84-37.48-2.42-13.71-1.09-27.3,4-40.79,5.09-13.48,13.07-24.57,23.95-33.25,10.88-8.69,23.6-14.14,38.17-16.34,14.56-2.2,29.95-.24,46.16,5.88,16.03,6.05,28.73,14.7,38.12,25.94,9.38,11.25,15.29,23.72,17.71,37.43,2.42,13.71,1.08,27.31-4,40.78-5.09,13.48-13.07,24.56-23.95,33.26-10.88,8.69-23.56,14.16-38.03,16.39-14.48,2.24-29.73.33-45.76-5.72ZM833,396.42c12.2,4.61,24.56,1.52,37.06-9.27,12.5-10.78,22.26-25.47,29.27-44.05,7.01-18.58,9.39-36.04,7.14-52.4-2.25-16.35-9.49-26.84-21.69-31.44s-24.56-1.52-37.06,9.27c-12.5,10.79-22.26,25.47-29.27,44.05-7.01,18.58-9.4,36.05-7.14,52.4,2.25,16.36,9.48,26.83,21.69,31.44Z"/>
        </g>
      </g>
      <g>
        <path class="cls-2" d="M558.68,383.38c-3.9-4.17-5.84-11.49-5.84-21.98v-121.97c-.42.3-.81.6-1.25.89-6.43,4.34-14.8,6.51-25.12,6.51-5.52,0-10.36-.78-14.58-2.29.04.91.06,1.84.06,2.83v111.53c0,11.44-1.95,19.43-5.84,23.95-3.9,4.53-9.74,7.15-17.52,7.86v5.36h87.61v-5.36c-7.79-.71-13.63-3.15-17.52-7.33Z"/>
        <path class="cls-2" d="M526.47,228.73c-9.54,0-17.13-2.53-22.78-7.59-5.65-5.06-8.47-11.58-8.47-19.57v-98.13c0-7.98-1.02-13.92-3.07-17.82-2.04-3.89-4.63-6.47-7.74-7.74-3.12-1.26-6.23-1.9-9.35-1.9v-4.38c10.12,0,19.08-2.53,26.87-7.59,7.78-5.06,14.16-11.24,19.13-18.54,4.96-7.3,8.42-14.55,10.37-21.76h4.67v47.9h22.78l-2.34,4.38h-20.44v121.49c0,9.35,4.09,14.31,12.27,14.89,5.64,0,9.64-2.63,11.97-7.88l2.92,2.04c-1.36,5.06-5.26,10.03-11.68,14.89-6.43,4.87-14.8,7.3-25.12,7.3Z"/>
        <path class="cls-2" d="M64.45,75.27c12.95-11,30.52-16.79,52.71-17.38h19.37l-2.06-3.49c-3.48-10.42-6.9-21-10.26-31.74-1.23-3.93-2.44-7.85-3.63-11.75,2.12-1.54,3.19-4.02,2.69-6.28-.74-3.32-4.77-5.54-7.72-4.29-1.88.79-3.02,2.85-3.08,4.84-.07,2.22,1.18,4.32,3.23,5.36.83.29,1.66.59,2.48.88,2.77,13.04-.68,25.07-7.47,28.47-8.42,4.22-25.52-3.08-32.91-22.65,3.92-3.65.59-12.78-4.79-10.72-5.18,1.47-3.16,10.49,1.93,11.39,11.37,26.9,5.51,60.82-35.25,29.4,1.11-4.04-3.88-9.1-8.05-7.48-5.9,1.87-2.44,11.74,3.66,11.19,19.59,25.94,20.65,49.11-23.96,37.08.3-9.03-14.65-8.62-10.68.68,1.71,3.85,6.88,5.39,9.48,2.44,10.69,7.2,21.38,14.4,32.07,21.6l2.83,2.52c0-.17-.01-.35-.01-.52,0-15.38,6.47-28.57,19.42-39.57Z"/>
        <path class="cls-2" d="M834.72,227.94h0c0-38.7-31.38-70.08-70.08-70.08h0c38.7,0,70.08-31.38,70.08-70.08h0c0,38.7,31.38,70.08,70.08,70.08h0c-38.7,0-70.08,31.38-70.08,70.08Z"/>
      </g>
    </g>
  </g>
</svg>