<?xml version="1.0" encoding="UTF-8"?>
<svg id="Camada_2" data-name="Camada 2" xmlns="http://www.w3.org/2000/svg" version="1.1" viewBox="0 0 920 920">
  <defs>
    <style>
      .cls-1 {
        fill: #d19f70;
        stroke-width: 0px;
      }
    </style>
  </defs>
  <g id="Camada_1-2" data-name="Camada 1-2">
    <path class="cls-1" d="M0,383v-36c.3-1.4.8-2.9.8-4.3,1.6-28.5,6.6-56.3,14.9-83.6,17.3-56.8,46.7-106.3,88-148.8,34.1-35,73.7-62.1,118.7-81.2,35-14.9,71.4-24,109.3-27.2,7.4-.6,14.8-1.3,22.2-1.9h22c1.6.3,3.2.7,4.8.9,15.5,1.7,31.2,2.4,46.6,5.1,80.6,14,148.9,51.3,204.5,111.1,54.6,58.8,86.3,128.4,95.1,208.2,7,63.3-2.1,124.4-27.3,182.9-5.8,13.4-12.6,26.3-19.5,40.6,2.4,2.1,5.4,4.5,8.1,7.2,70.2,70.2,140.3,140.5,210.7,210.5,9.7,9.7,18.5,19.5,20.9,33.5v11c-2.4,9.2-5.7,17.9-12.7,24.8-23.5,23.3-46.9,46.8-70.3,70.3-5.5,5.5-11.9,9.6-19.4,11.8-3.5,1-7.1,1.4-10.6,2.1h-2c-17.1-1.1-28.5-11.5-39.8-23-70.8-71.1-141.8-142-212.7-212.9-1.4-1.4-2.2-3.3-3.3-5-2.4,1.7-3.4,2.1-4.4,2.7-55.1,31.2-114.3,47.1-177.7,47.6-68.1.5-131.4-16.6-189.6-51.5-64.4-38.7-112.6-92.4-144.2-160.7-15.9-34.2-26.2-70-30.4-107.5-1-8.9-1.9-17.8-2.9-26.7ZM365.2,636.6c154.6-.4,276.7-129.3,271-282.5-5.4-146.1-130.8-271-291-260.2-137.7,9.3-256.6,126.4-251.9,279.5,4.6,150,128.3,263.4,271.9,263.2h0Z"/>
  </g>
</svg>