<?xml version="1.0" encoding="UTF-8"?>
<svg id="Camada_2" data-name="Camada 2" xmlns="http://www.w3.org/2000/svg" version="1.1" viewBox="0 0 476.8 476.7">
  <defs>
    <style>
      .cls-1 {
        fill: #d19f70;
        stroke-width: 0px;
      }
    </style>
  </defs>
  <g id="Camada_1-2" data-name="Camada 1-2">
    <g>
      <path class="cls-1" d="M476.8,238.6c-.2,132.4-109,239.6-241.2,238.1C107.2,475.2-.6,370.1,0,236.2.5,106.4,108.6-.4,238.9,0c131.5.4,238.3,107.6,238,238.6ZM229.9,133.8c-15-.1-38.4.4-61.8,1.7-12.6.7-25.2.6-37.7,2.8-19.1,3.3-31.1,13.9-35.5,32.9-1.9,8.3-2.4,16.7-2.8,25.2-1.8,33.8-3.1,67.6,1.6,101.4,3.5,25.3,14.5,36.9,39.7,40.9,12,1.9,24,1.9,36.1,2.6,56,3,112,2.7,167.9-1.9,30.7-2.5,41.8-13.7,45.6-40.1,5.9-40.8,4.4-81.6-.1-122.3-2.5-22.6-13.8-33.6-34-37.9-3-.6-6-1.2-9.1-1.4-33.8-2.6-67.6-3.5-109.9-3.5h0Z"/>
      <path class="cls-1" d="M208.5,282.4v-88.3c25.4,14.8,50.3,29.3,75.8,44.1-25.4,14.8-50.3,29.3-75.8,44.2Z"/>
    </g>
  </g>
</svg>